<!-- icon666.com - MILLIONS OF FREE VECTOR ICONS --><svg viewBox="0 0 24 24" xmlns="http://www.w3.org/2000/svg"><g id="Layer_2" data-name="Layer 2"><path d="m12 22.25h-7.586a1.75 1.75 0 0 1 -1.237-2.987l.631-.632a9.9 9.9 0 0 1 -2.558-6.631 10.52 10.52 0 0 1 10.75-10.25 10.52 10.52 0 0 1 10.75 10.25 10.52 10.52 0 0 1 -10.75 10.25zm0-19a9.02 9.02 0 0 0 -9.25 8.75 8.462 8.462 0 0 0 2.63 6.1.752.752 0 0 1 .008 1.069l-1.151 1.15a.251.251 0 0 0 .177.427h7.586a9.02 9.02 0 0 0 9.25-8.746 9.02 9.02 0 0 0 -9.25-8.75z"></path><path d="m16 11.25h-8a.75.75 0 0 1 0-1.5h8a.75.75 0 0 1 0 1.5z"></path><path d="m13 15.25h-5a.75.75 0 0 1 0-1.5h5a.75.75 0 0 1 0 1.5z"></path></g></svg>