<!-- icon666.com - MILLIONS OF FREE VECTOR ICONS --><svg viewBox="0 0 24 24" xmlns="http://www.w3.org/2000/svg"><g id="Layer_2" data-name="Layer 2"><path d="m12.652 22.75h-1.3a2.232 2.232 0 0 1 -2.232-2.017.753.753 0 0 0 -.461-.648.745.745 0 0 0 -.764.1 2.245 2.245 0 0 1 -3.035-.122l-.922-.923a2.233 2.233 0 0 1 -.151-3 .759.759 0 0 0 .136-.782.743.743 0 0 0 -.612-.472 2.243 2.243 0 0 1 -2.061-2.234v-1.3a2.231 2.231 0 0 1 2.016-2.232.755.755 0 0 0 .65-.461.746.746 0 0 0 -.1-.764 2.244 2.244 0 0 1 .122-3.035l.922-.922a2.232 2.232 0 0 1 3-.15.76.76 0 0 0 .781.134.741.741 0 0 0 .473-.612 2.244 2.244 0 0 1 2.233-2.06h1.3a2.232 2.232 0 0 1 2.233 2.017.754.754 0 0 0 .46.648.744.744 0 0 0 .765-.1 2.244 2.244 0 0 1 3.035.123l.923.922a2.234 2.234 0 0 1 .15 3 .757.757 0 0 0 -.136.781.742.742 0 0 0 .612.473 2.243 2.243 0 0 1 2.061 2.233v1.3a2.231 2.231 0 0 1 -2.016 2.228.755.755 0 0 0 -.65.461.744.744 0 0 0 .1.763 2.247 2.247 0 0 1 -.122 3.036l-.923.923a2.232 2.232 0 0 1 -3 .149.753.753 0 0 0 -.781-.134.741.741 0 0 0 -.473.612 2.244 2.244 0 0 1 -2.233 2.065zm-4.288-4.228a2.265 2.265 0 0 1 2.243 2.019.751.751 0 0 0 .741.709h1.3a.738.738 0 0 0 .736-.666 2.259 2.259 0 0 1 3.667-1.561.749.749 0 0 0 1.028-.023l.921-.92a.739.739 0 0 0 .049-.992 2.258 2.258 0 0 1 1.49-3.695.75.75 0 0 0 .709-.741v-1.3a.737.737 0 0 0 -.666-.736 2.259 2.259 0 0 1 -1.56-3.667.75.75 0 0 0 -.022-1.029l-.921-.92a.738.738 0 0 0 -.991-.049 2.258 2.258 0 0 1 -3.695-1.49.751.751 0 0 0 -.741-.709h-1.3a.738.738 0 0 0 -.736.666 2.26 2.26 0 0 1 -3.671 1.559.748.748 0 0 0 -1.024.023l-.921.92a.739.739 0 0 0 -.049.992 2.258 2.258 0 0 1 -1.49 3.695.75.75 0 0 0 -.709.741v1.3a.737.737 0 0 0 .666.736 2.259 2.259 0 0 1 1.56 3.667.75.75 0 0 0 .022 1.029l.921.92a.738.738 0 0 0 .991.049 2.289 2.289 0 0 1 1.452-.527z"></path><path d="m12 17.75a5.75 5.75 0 1 1 5.75-5.75 5.757 5.757 0 0 1 -5.75 5.75zm0-10a4.25 4.25 0 1 0 4.25 4.25 4.255 4.255 0 0 0 -4.25-4.25z"></path></g></svg>