<!-- icon666.com - MILLIONS OF FREE VECTOR ICONS --><svg enable-background="new 0 0 32 32" viewBox="0 0 32 32" xmlns="http://www.w3.org/2000/svg"><g id="Guides"></g><g id="_x32_0"></g><g id="_x31_9"><path d="m22 16c0 .6-.4 1-1 1h-12.8l3.6 4.4c.4.4.3 1.1-.1 1.4-.2.1-.4.2-.7.2s-.6-.1-.8-.4l-5-6c-.3-.4-.3-.9 0-1.3l5-6c.4-.4 1-.5 1.4-.1s.5 1 .1 1.4l-3.5 4.4h12.8c.6 0 1 .4 1 1z" fill="#000000" style="fill: rgb(255, 255, 255);"></path><path d="m26 17h-1.9c-.6 0-1-.4-1-1s.4-1 1-1h1.9c.6 0 1 .4 1 1s-.4 1-1 1z" fill="#000000" style="fill: rgb(255, 255, 255);"></path></g><g id="_x31_8"></g><g id="_x31_7"></g><g id="_x31_6"></g><g id="_x31_5"></g><g id="_x31_4"></g><g id="_x31_3"></g><g id="_x31_2"></g><g id="_x31_1"></g><g id="_x31_0"></g><g id="_x30_9"></g><g id="_x30_8"></g><g id="_x30_7"></g><g id="_x30_6"></g><g id="_x30_5"></g><g id="_x30_4"></g><g id="_x30_3"></g><g id="_x30_2"></g><g id="_x30_1"></g></svg>